<?xml version="1.0" encoding="iso-8859-1"?>
<!-- Uploaded to: SVG Repo, www.svgrepo.com, Generator: SVG Repo Mixer Tools -->
<svg fill="#F5F5F5" height="1rem" width="1rem" version="1.1" id="Layer_1" xmlns="http://www.w3.org/2000/svg" xmlns:xlink="http://www.w3.org/1999/xlink"
	 viewBox="0 0 512 512" xml:space="preserve">
<g>
	<g>
		<path d="M354.345,318.59c-15.106-16.912-30.727-34.399-30.727-44.578V103.642c0-25.265-6.087-49.759-17.14-68.966
			C293.612,12.315,275.684,0,256,0c-19.684,0-37.612,12.315-50.479,34.676c-11.052,19.208-17.14,43.701-17.14,68.966v170.369
			c0,10.18-15.62,27.666-30.727,44.578c-28.951,32.412-68.602,76.802-68.602,138.993v16.696h99.33V512h135.235v-37.721h99.33
			v-16.696C422.948,395.392,383.297,351.002,354.345,318.59z M188.381,440.888h-64.7c6.134-41.003,33.973-72.174,58.877-100.054
			c1.971-2.206,3.916-4.384,5.823-6.539V440.888z M290.226,478.609h-68.452V103.642c0-38.914,18.724-70.251,34.226-70.251
			s34.226,31.337,34.226,70.251V478.609z M323.617,440.888V334.295c1.908,2.155,3.853,4.333,5.823,6.539
			c24.903,27.88,52.744,59.05,58.877,100.054H323.617z"/>
	</g>
</g>
</svg>
